<?xml version="1.0" encoding="utf-8"?>
<!-- Generator: Adobe Illustrator 17.1.0, SVG Export Plug-In . SVG Version: 6.00 Build 0)  -->
<!DOCTYPE svg PUBLIC "-//W3C//DTD SVG 1.1//EN" "http://www.w3.org/Graphics/SVG/1.1/DTD/svg11.dtd">
<svg version="1.1" id="Layer_1" xmlns="http://www.w3.org/2000/svg" xmlns:xlink="http://www.w3.org/1999/xlink" x="0px" y="0px"
	 viewBox="-4 0 130.8 32" enable-background="new -4 0 130.8 32" xml:space="preserve">
<g id="eye">
	<path fill="#333333" d="M32,15.8c0,0,0-0.1,0-0.1c0,0,0,0,0,0c0,0,0-0.1,0-0.1C29,10,22.7,6,16,6c-6.7,0-13,4-15.9,9.5
		c0,0,0,0.1,0,0.1c0,0,0,0,0,0c0,0,0,0.1,0,0.1c0,0.1,0,0.1,0,0.2s0,0.1,0,0.2c0,0,0,0.1,0,0.1c0,0,0,0,0,0c0,0,0,0.1,0,0.1
		C3,22,9.4,26,16,26c6.7,0,13-4,15.9-9.5c0,0,0,0,0-0.1c0,0,0,0,0,0c0,0,0-0.1,0-0.1c0-0.1,0-0.1,0-0.2S32,15.9,32,15.8z M16,24
		c-5.6,0-11.1-3.2-13.9-8c2.8-4.8,8.2-8,13.9-8c5.6,0,11.1,3.2,13.9,8C27.1,20.8,21.6,24,16,24z"/>
	<path fill="#333333" d="M16,12C16,12,16,12,16,12c-2.2,0-4,1.8-4,4c0,0.3,0.2,0.5,0.5,0.5c0.3,0,0.5-0.2,0.5-0.5c0-1.7,1.3-3,3-3v0
		c0.3,0,0.5-0.2,0.5-0.5C16.5,12.2,16.3,12,16,12z"/>
	<path fill="#333333" d="M16,9c-3.9,0-7,3.1-7,7s3.1,7,7,7c3.9,0,7-3.1,7-7C23,12.1,19.9,9,16,9z M16,22c-3.3,0-6-2.7-6-6s2.7-6,6-6
		s6,2.7,6,6S19.3,22,16,22z"/>
</g>
<text transform="matrix(1 0 0 1 38.3662 24.041)" fill="#333333" font-family="'Nunito-Regular'" font-size="23.8029">Docular</text>
</svg>
